<svg width="15" height="24" viewBox="0 0 15 24" fill="none" xmlns="http://www.w3.org/2000/svg">
<path d="M14.9031 19.0704C14.9031 19.8357 14.7631 20.5077 14.4831 21.0864C14.2217 21.6837 13.7831 22.1784 13.1671 22.5704C12.5511 22.9624 11.7577 23.261 10.7871 23.4664C9.8164 23.6717 8.63107 23.7744 7.23107 23.7744C5.99907 23.7744 4.95373 23.6904 4.09507 23.5224C3.2364 23.373 2.52707 23.149 1.96707 22.8504C1.42573 22.5704 1.03373 22.2157 0.791066 21.7864C0.5484 21.357 0.427066 20.8717 0.427066 20.3304C0.427066 19.509 0.651066 18.865 1.09907 18.3984C1.56573 17.9504 2.20973 17.661 3.03107 17.5304V17.2224C2.43373 17.073 1.96707 16.7837 1.63107 16.3544C1.31373 15.9064 1.15507 15.3837 1.15507 14.7864C1.15507 14.413 1.22973 14.0864 1.37907 13.8064C1.5284 13.5077 1.7244 13.2557 1.96707 13.0504C2.2284 12.845 2.51773 12.677 2.83507 12.5464C3.1524 12.397 3.4884 12.285 3.84307 12.2104V12.0984C2.94707 11.6877 2.27507 11.1184 1.82707 10.3904C1.39773 9.66238 1.18307 8.81305 1.18307 7.84238C1.18307 6.34905 1.6964 5.15438 2.72307 4.25838C3.74973 3.34371 5.2524 2.88638 7.23107 2.88638C7.67907 2.88638 8.11773 2.91438 8.54707 2.97038C8.99507 3.02638 9.40573 3.11971 9.77907 3.25038V2.77438C9.77907 1.35571 10.4697 0.646378 11.8511 0.646378H14.1191V3.39038H11.0111V3.78238C11.7764 4.21171 12.3457 4.77171 12.7191 5.46238C13.0924 6.15304 13.2791 6.94638 13.2791 7.84238C13.2791 9.31704 12.7657 10.5024 11.7391 11.3984C10.7311 12.2944 9.2284 12.7424 7.23107 12.7424C6.3724 12.7424 5.62573 12.6584 4.99107 12.4904C4.71107 12.621 4.4684 12.7984 4.26307 13.0224C4.05773 13.2277 3.95507 13.489 3.95507 13.8064C3.95507 14.5344 4.58973 14.8984 5.85907 14.8984H9.77907C11.5711 14.8984 12.8684 15.2717 13.6711 16.0184C14.4924 16.7464 14.9031 17.7637 14.9031 19.0704ZM11.5431 19.4904C11.5431 19.0237 11.3564 18.6597 10.9831 18.3984C10.6097 18.137 9.96573 18.0064 9.05107 18.0064H4.06707C3.56307 18.3797 3.31107 18.8837 3.31107 19.5184C3.31107 20.0784 3.5444 20.517 4.01107 20.8344C4.47773 21.1517 5.27107 21.3104 6.39107 21.3104H8.18307C9.35907 21.3104 10.2084 21.161 10.7311 20.8624C11.2724 20.5637 11.5431 20.1064 11.5431 19.4904ZM7.23107 10.3064C8.98573 10.3064 9.86307 9.55971 9.86307 8.06638V7.59038C9.86307 6.09705 8.98573 5.35038 7.23107 5.35038C5.4764 5.35038 4.59907 6.09705 4.59907 7.59038V8.06638C4.59907 9.55971 5.4764 10.3064 7.23107 10.3064Z" fill="#F13333"/>
</svg>
